<?xml version="1.0" standalone="no"?><!DOCTYPE svg PUBLIC "-//W3C//DTD SVG 1.1//EN" "http://www.w3.org/Graphics/SVG/1.1/DTD/svg11.dtd"><svg t="1573967134481" class="icon" viewBox="0 0 1024 1024" version="1.1" xmlns="http://www.w3.org/2000/svg" p-id="2101" xmlns:xlink="http://www.w3.org/1999/xlink" width="128" height="128"><defs><style type="text/css"></style></defs><path d="M513 61.8c-248.53 0-450 201.47-450 450s201.47 450 450 450 450-201.47 450-450-201.47-450-450-450z m28.73 635.61a17 17 0 0 1-24 0l-158.06-158a17 17 0 1 1 24-24l158.06 158a17 17 0 0 1 0 24z m195.61-143.59l-51.91 51.9a17 17 0 1 1-24-24l51.91-51.9c21.9-21.91 32.54-47.14 32.54-77.12s-10.27-54.82-31.4-76-46-31.39-76-31.39c-31.56 0-56.8 9.88-77.12 30.2l-37.52 37.53c-3.26 3.25-7.53 4.76-12.31 5a17 17 0 0 1-12.12-5.38l-35.19-37.53c-19.93-19.92-45.16-29.8-76.73-29.8-30 0-54.81 10.26-75.95 31.39s-31.4 46-31.4 76c0 31.57 9.88 56.79 30.2 77.12l213.5 213.42a17 17 0 1 1-24 24L286.31 553.82c-26.65-26.66-40.16-60.68-40.16-101.16 0-38.89 13.91-72.53 41.36-100s61.09-41.36 100-41.36c40.48 0 74.52 13.52 101.16 40.16l23.55 25.11 25.12-25.11C564 324.83 598 311.31 638.49 311.31c38.9 0 72.55 13.92 100 41.36s41.36 61.1 41.36 100-14.3 72.93-42.51 101.15z" fill="#FFB74D" p-id="2102"></path></svg>