<?xml version="1.0" standalone="no"?><!DOCTYPE svg PUBLIC "-//W3C//DTD SVG 1.1//EN" "http://www.w3.org/Graphics/SVG/1.1/DTD/svg11.dtd"><svg t="1573968371160" class="icon" viewBox="0 0 1024 1024" version="1.1" xmlns="http://www.w3.org/2000/svg" p-id="2913" width="32" height="32" xmlns:xlink="http://www.w3.org/1999/xlink"><defs><style type="text/css"></style></defs><path d="M581.446815 0c-47.863887 38.29111-104.343274 82.708797-146.272039 114.873329-83.761802 65.094886-187.913621 200.166776-219.599514 287.183322s-21.251566 308.434888-21.251566 308.434889 58.585398-121.191362 78.113864-128.466673 60.308498-26.899505 64.233336-5.743667 20.964383 110.852762 20.964383 110.852763 80.219875-238.649341 268.995045-341.652426 300.585211-19.624194 299.532205 46.715154-82.517341 99.36543-117.457979 101.950079-73.327475 26.708049-73.327475 26.708049 80.602786-46.332243 99.269702-73.136019 25.176405-74.093297-25.176404-94.387586-170.874077 7.275311-268.516407 121.191362-157.089277 322.219688-175.756193 378.316164-34.174815 108.36384-53.703281 103.385996-24.314855-32.547443-27.665327-47.863887-12.253155-25.36786-11.391605-43.268954 23.070394-113.437412 13.497616-120.138357-13.114705 30.920071-35.036365 82.995981-47.193793 196.050481-82.134431 196.050481-51.310087-79.645508-58.681125-170.874077-30.058521-281.439656 17.135271-395.355707S288.32837 159.961111 439.673981 40.301393c9.572777-7.849677 19.145555-15.603627 28.718332-22.878938z" p-id="2914" fill="#DEB21B"></path><path d="M750.119153 923.964476c30.249977-17.901094 54.564831-30.154249 63.467514-30.154249 23.549032 0 49.586987-12.157427 46.236515-28.718332s-38.961204-22.591755-62.605964-33.217538-57.436664-4.116294-78.018136-17.901093-61.170048-39.918482-57.436665-81.368608-31.685893-47.863887-52.841731-53.703282-44.704871-55.330653-44.704871-55.330653 17.901094 61.840142 32.451716 77.348041 19.145555 4.690661 30.154249 34.84491a401.386557 401.386557 0 0 0 50.448537 100.897074 139.666822 139.666822 0 0 0 39.822754 37.525287l-74.093298 60.691409z" p-id="2915" fill="#DEB21B"></path></svg>